<?xml version="1.0" encoding="utf-8"?>
<!-- Generator: Adobe Illustrator 24.0.0, SVG Export Plug-In . SVG Version: 6.00 Build 0)  -->
<svg fill="#2F5DFF" version="1.1" id="Слой_1" xmlns="http://www.w3.org/2000/svg" xmlns:xlink="http://www.w3.org/1999/xlink" x="0px" y="0px"
	 viewBox="0 0 451.3 316.798" enable-background="new 0 0 451.3 316.798" xml:space="preserve">
<g>
	<path d="M422.1,202.398v9.7c-46.3-41-120.1-101.4-189-144.9c-36-22.8-71.1-42.2-100.8-54.2c-14.9-6-28.5-10.2-40.3-12
		s-22.1-1.3-30.1,2.6c-11.6,5.6-18.8,13.6-22.6,23.1c-3.8,9.3-4.2,19.7-2.7,29.9c1.1,7.5,3.3,14.9,5.9,22H42
		c0.9,1.7,1.7,3.5,2.6,5.3c4.3,9.8,9.4,18.5,13.8,24.7l0.4-0.3c1.8,2.8,3.6,5.5,5.5,8.3l-0.4,3.6c-0.4,3.6-0.8,7.1-1.2,10.8
		l-0.7,2.2c-1.4,4.4-3,9.3-4.6,14.3c-3.7,1.3-7.1,0.5-10.7-0.4c-2.7-0.7-5.4-1.4-8.5-1.3c2.8-4.1,3.5-9.3,1.9-14
		c-0.3-0.9-0.6-1.7-0.9-2.6l-1.1-3.3v-0.1c0.3-0.9,0.8-1.7,1.3-2.5c1.1-1.7,2.2-3.5,1.5-6c-3.8,0.7-7.3,1.4-10.6,2.1
		c-11.3-3.9-18.6-2.7-23.2,4.4c-1.9,2.9-3.5,6.5-3.7,9.9c-0.3,5.6,3.5,9,7.1,12.2c0.9,0.8,1.8,1.6,2.7,2.5c-0.9,2-1.6,3.8-2.4,5.6
		l0,0c-0.8,1.9-1.5,3.7-2.3,5.4c-3,1.3-5.9,2.6-8.5,3.7c0.8,1.3,1.7,2.5,2.4,3.6c2,3,3.9,5.7,5.6,8.5c0.7,1.1,1.2,2.2,1.8,3.3
		c1.6,3,3.1,6,6.6,7.5c1.8-0.7,3.3-1.3,4.6-1.8c2.5,4.3,4.6,8.1,7.1,12.3c0.2,5.9,0.7,7.4,4,13.5c0.3,0.6,0.7,1.2,1,1.7
		c1.2,2.1,2.5,4.2,2.8,6.4c1.1,8.9,6.5,14.9,12.4,20.9c1.2,0.1,2.3,0.2,3.4,0.3l0,0c0.7,0.1,1.4,0.1,2,0.2c0.5,0,1,0.1,1.5,0.2
		c1.5,1.5,2.9,3,4.3,4.5c2.1,2.2,4.2,4.4,6.2,6.4c0.7,1.8,1.3,3.5,1.9,5.2v0.1l0,0l0,0c0.6,1.5,1.1,3.1,1.6,4.5l-0.2,1.2
		c-0.6,4-1.2,7.1-1.6,10.1c-10.6,12.7-15.1,28-19.6,43.7l-0.6,2h17.9c2.3-3.5,3.8-7.4,5.3-11.4c2.8-7.2,5.6-14.4,13-19
		c0.5-1.4,1-2.7,1.5-4c0.4-1,0.8-2.1,1.2-3.1l0,0c1.2-3.2,2.4-6.4,3.7-9.7c1.8,1,3.4,1.9,4.9,2.7l0,0c0.9,0.5,1.8,1,2.6,1.5
		c0.6,2.2,1.2,4.2,1.7,6.1l0,0v0.1c0.1,0.4,0.2,0.8,0.3,1.2c-2.6,7.4-1.5,14.7-0.4,22.3c0.7,4.4,1.3,8.9,1.3,13.5h25
		c-0.4-2.9-0.8-5.6-1.2-8.1v-0.1c-0.4-2.4-0.7-4.6-0.9-6.5c1.1-3.4,2-6.1,2.7-8.5c0.3-1,0.6-1.9,0.9-2.8l-1-1.4
		c-0.5-0.8-1-1.4-1.4-2.1c-1.1-1.5-1.9-2.8-2.8-4.1l0.1-0.2l0.1-0.3c0.1-0.2,0.1-0.4,0.2-0.7l0.2-0.6l0,0c0.4-1.2,0.7-2.3,1.1-3.4
		c2.7-6.9,1.1-13.7-3.6-18.5c-5.1-5.2-9.2-11-13.3-16.9l-0.8-1.1c-0.1-0.2-0.2-0.3-0.3-0.5s-0.2-0.3-0.4-0.5
		c-0.6-0.9-1.2-1.7-1.8-2.6c-2.4-3.4-4.9-6.6-7.4-9.8l0,0l-0.9-1.2c-0.7-0.9-1.5-1.9-2.2-2.8c0.9-0.9,1.8-1.6,2.6-2.4l0,0l0.1-0.1
		c1-0.9,2-1.8,3-2.8c-3.9-7.7-7.8-15.4-11.6-23.1c-3.9-7.7-7.8-15.4-11.7-23.3c8-1.6,12.5-7.5,17.5-13.8l0.4-0.6l12.4,19.7l5.7-3.6
		l-16.6-26.4c-0.1-0.2-0.1-0.3-0.2-0.5c0-0.1-0.1-0.3-0.1-0.4c-1.7-5.7-4-11.8-10.5-15.1c-3.2-1.6-6.3-5-7.1-9.6
		c-0.6-3.3-2.4-6-4.9-8.2c-8.3-12-15.5-24.3-21.6-36.6h-0.4c-3-7.3-5.4-15.2-6.5-23c-1.4-9.4-1-18.4,2.2-26.3
		c3.2-7.8,9.1-14.6,19.4-19.6c6.3-3.1,15.1-3.7,26.4-2c11.2,1.7,24.3,5.7,38.9,11.6c29.2,11.8,63.9,31,99.8,53.7
		c53.4,33.7,96.4,73,133.7,107.6c7.4,6.9,2.5,21.2-6.2,26.4c-4.4,2.6-8.4,5.9-12.1,9.9c-10.7,11.5-16,25.7-16,42.7s5.3,31.2,16,42.7
		s24,17.2,39.9,17.2c14.8,0,27.2-5.5,37.2-16.4v14.2h29.1v-114.4H422.1z M77.9,137.098c2.5,0.9,1.6,2.4,0.7,3.9
		c-0.3,0.5-0.5,0.9-0.7,1.4V137.098z M74,130.098L74,130.098L74,130.098c0.3-0.6,0.7-1.3,1.1-2.2c0.6,2.3,1.2,4.2,1.7,5.8l0,0
		c0.3,0.9,0.5,1.8,0.8,2.7c-1.5-1.2-3.1-2.5-4.8-3.8C73.1,131.798,73.5,131.098,74,130.098z M413,282.198c-6,6.1-13.5,9.1-22.6,9.1
		c-9,0-16.5-3-22.5-9.1s-9-13.6-9-22.6c0-9,3-16.5,9-22.6s13.5-9.1,22.5-9.1c9.1,0,16.6,3,22.6,9.1c6.1,6.1,9.1,13.6,9.1,22.6
		C422.1,268.598,419,276.098,413,282.198z"/>
	<path d="M281.3,199.698c-16.6,0-29.6,6.2-39,18.6c-3.7-5.9-8.6-10.5-14.8-13.7c-6.1-3.3-13.2-4.9-21.1-4.9
		c-13.9,0-25.2,4.8-33.8,14.6v-11.8h-29.1v114.3h29v-65.3c0-7,2.2-12.7,6.7-17c4.5-4.4,10.2-6.6,17.3-6.6c6.9,0,12.3,2.1,16.4,6.3
		c4.2,4.2,6.2,9.8,6.2,16.8v65.8h29.1v-65.3c0-7.1,2.2-12.8,6.7-17.1s10.3-6.5,17.4-6.5c6.8,0,12.2,2.1,16.2,6.3
		c4.1,4.2,6.1,9.8,6.1,16.8v65.8h29.2v-74.5c0-12.9-3.9-23.2-11.7-31C304.5,203.598,294.2,199.698,281.3,199.698z"/>
</g>
</svg>
